<?xml version="1.0" encoding="iso-8859-1"?>
<!-- Generator: Adobe Illustrator 19.0.0, SVG Export Plug-In . SVG Version: 6.00 Build 0)  -->
<svg version="1.1" id="Capa_1" xmlns="http://www.w3.org/2000/svg" xmlns:xlink="http://www.w3.org/1999/xlink" x="0px" y="0px"
	 viewBox="0 0 512 512" style="enable-background:new 0 0 512 512;" xml:space="preserve">
<g>
	<g>
		<path d="M256,332.8c-99.84,0-179.2,79.36-179.2,179.2h358.4C435.2,412.16,355.84,332.8,256,332.8z"/>
	</g>
</g>
<g>
	<g>
		<path d="M332.8,107.52l76.8-30.72L256,0L102.4,76.8l12.8,7.68v33.28c-7.68,10.24-12.8,25.6-12.8,33.28
			c0,15.36,10.24,28.16,25.6,28.16s25.6-12.8,25.6-28.16c0-7.68-7.68-23.04-12.8-33.28v-25.6l38.4,15.36v30.72
			c-15.36,17.92-25.6,40.96-25.6,66.56c0,56.32,46.08,102.4,102.4,102.4s102.4-46.08,102.4-102.4c0-25.6-10.24-48.64-25.6-66.56
			V107.52z"/>
	</g>
</g>
<g>
</g>
<g>
</g>
<g>
</g>
<g>
</g>
<g>
</g>
<g>
</g>
<g>
</g>
<g>
</g>
<g>
</g>
<g>
</g>
<g>
</g>
<g>
</g>
<g>
</g>
<g>
</g>
<g>
</g>
</svg>
